<svg width="43" height="50" viewBox="0 0 43 50" fill="none" xmlns="http://www.w3.org/2000/svg">
<path d="M15.16 40.4C13.4533 40.4 11.7867 40.2 10.16 39.8C8.56 39.3733 7.10667 38.6267 5.8 37.56C4.52 36.4933 3.49333 35.0133 2.72 33.12C1.97333 31.2267 1.6 28.8 1.6 25.84C1.6 22.88 1.97333 20.4533 2.72 18.56C3.49333 16.6667 4.52 15.1867 5.8 14.12C7.10667 13.0533 8.56 12.32 10.16 11.92C11.7867 11.4933 13.4533 11.28 15.16 11.28C16.8667 11.28 18.52 11.4933 20.12 11.92C21.7467 12.3467 23.2 13.0933 24.48 14.16C25.7867 15.2267 26.8133 16.7067 27.56 18.6C28.3333 20.4933 28.72 22.9067 28.72 25.84C28.72 28.7733 28.3333 31.1867 27.56 33.08C26.8133 34.9733 25.7867 36.4533 24.48 37.52C23.2 38.5867 21.7467 39.3333 20.12 39.76C18.52 40.1867 16.8667 40.4 15.16 40.4ZM15.16 33.6C17.1333 33.6 18.6267 33.0133 19.64 31.84C20.6533 30.6667 21.16 28.6667 21.16 25.84C21.16 23.0133 20.6533 21.0133 19.64 19.84C18.6267 18.6667 17.1333 18.08 15.16 18.08C13.2133 18.08 11.7333 18.68 10.72 19.88C9.70667 21.08 9.2 23.0667 9.2 25.84C9.2 28.6133 9.70667 30.6 10.72 31.8C11.7333 33 13.2133 33.6 15.16 33.6Z" fill="#036D19"/>
<path d="M29.44 46.832V33.752L28.96 31.112L29.704 29.648H33.28V30.68L33.52 30.8C33.52 30.8 33.664 30.68 33.952 30.44C34.24 30.2 34.632 29.968 35.128 29.744C35.64 29.504 36.232 29.384 36.904 29.384C38.328 29.384 39.44 29.84 40.24 30.752C41.056 31.664 41.464 33.104 41.464 35.072C41.464 36.544 41.256 37.736 40.84 38.648C40.44 39.544 39.896 40.192 39.208 40.592C38.52 40.992 37.752 41.192 36.904 41.192C35.752 41.192 34.936 41.104 34.456 40.928C33.992 40.736 33.76 40.64 33.76 40.64V46.832H29.44ZM34.864 37.904C35.472 37.904 35.96 37.688 36.328 37.256C36.712 36.824 36.904 36.168 36.904 35.288C36.904 34.424 36.752 33.792 36.448 33.392C36.144 32.992 35.696 32.792 35.104 32.792L33.76 33.296V37.592C33.76 37.592 33.84 37.648 34 37.76C34.176 37.856 34.464 37.904 34.864 37.904Z" fill="#14CC60"/>
</svg>
