<svg width="187" height="57" viewBox="0 0 187 57" fill="none" xmlns="http://www.w3.org/2000/svg">
<path d="M19.224 43.56C16.8347 43.56 14.5013 43.28 12.224 42.72C9.98399 42.1227 7.94932 41.0773 6.11999 39.584C4.32799 38.0907 2.89066 36.0187 1.80799 33.368C0.762657 30.7173 0.23999 27.32 0.23999 23.176C0.23999 19.032 0.762657 15.6347 1.80799 12.984C2.89066 10.3333 4.32799 8.26133 6.11999 6.768C7.94932 5.27467 9.98399 4.248 12.224 3.688C14.5013 3.09066 16.8347 2.792 19.224 2.792C21.6133 2.792 23.928 3.09066 26.168 3.688C28.4453 4.28533 30.48 5.33066 32.272 6.824C34.1013 8.31733 35.5387 10.3893 36.584 13.04C37.6667 15.6907 38.208 19.0693 38.208 23.176C38.208 27.2827 37.6667 30.6613 36.584 33.312C35.5387 35.9627 34.1013 38.0347 32.272 39.528C30.48 41.0213 28.4453 42.0667 26.168 42.664C23.928 43.2613 21.6133 43.56 19.224 43.56ZM19.224 34.04C21.9867 34.04 24.0773 33.2187 25.496 31.576C26.9147 29.9333 27.624 27.1333 27.624 23.176C27.624 19.2187 26.9147 16.4187 25.496 14.776C24.0773 13.1333 21.9867 12.312 19.224 12.312C16.4987 12.312 14.4267 13.152 13.008 14.832C11.5893 16.512 10.88 19.2933 10.88 23.176C10.88 27.0587 11.5893 29.84 13.008 31.52C14.4267 33.2 16.4987 34.04 19.224 34.04ZM43.7975 56.608V26.088L42.6775 19.928L44.4135 16.512H52.7575V18.92L53.3175 19.2C53.3175 19.2 53.6535 18.92 54.3255 18.36C54.9975 17.8 55.9122 17.2587 57.0695 16.736C58.2642 16.176 59.6455 15.896 61.2135 15.896C64.5362 15.896 67.1308 16.96 68.9975 19.088C70.9015 21.216 71.8535 24.576 71.8535 29.168C71.8535 32.6027 71.3682 35.384 70.3975 37.512C69.4642 39.6027 68.1948 41.1147 66.5895 42.048C64.9842 42.9813 63.1922 43.448 61.2135 43.448C58.5255 43.448 56.6215 43.2427 55.5015 42.832C54.4188 42.384 53.8775 42.16 53.8775 42.16V56.608H43.7975ZM56.4535 35.776C57.8722 35.776 59.0108 35.272 59.8695 34.264C60.7655 33.256 61.2135 31.7253 61.2135 29.672C61.2135 27.656 60.8588 26.1813 60.1495 25.248C59.4402 24.3147 58.3948 23.848 57.0135 23.848L53.8775 25.024V35.048C53.8775 35.048 54.0642 35.1787 54.4375 35.44C54.8482 35.664 55.5202 35.776 56.4535 35.776ZM114.463 14.944L107.351 7.776L114.463 0.664001L121.575 7.776L114.463 14.944ZM109.423 43V24.464L108.247 19.984L109.367 16.568H119.503V43H109.423ZM125.774 43V26.144L124.654 19.984L126.39 16.568H134.734V18.976L135.238 19.312C135.649 18.9387 136.209 18.5093 136.918 18.024C137.665 17.5013 138.561 17.0347 139.606 16.624C140.651 16.2133 141.827 16.008 143.134 16.008C146.494 16.008 149.014 16.96 150.694 18.864C152.374 20.768 153.214 23.4373 153.214 26.872V33.984L154.39 39.584L153.214 43H143.134V28.328C143.134 26.9093 142.817 25.8267 142.182 25.08C141.585 24.296 140.633 23.904 139.326 23.904L135.854 24.968V43H125.774ZM172.67 43.56C169.795 43.56 167.238 43.1307 164.998 42.272C162.758 41.4133 161.003 39.976 159.734 37.96C158.464 35.944 157.83 33.2187 157.83 29.784C157.83 27.32 158.24 25.2107 159.062 23.456C159.92 21.7013 161.059 20.2827 162.478 19.2C163.896 18.08 165.483 17.2773 167.238 16.792C168.992 16.2693 170.803 16.008 172.67 16.008C175.88 16.008 178.344 16.3253 180.062 16.96C181.816 17.5947 182.974 18.0987 183.534 18.472L186.334 27.376L185.214 30.848H167.854C168.115 32.2293 168.806 33.3867 169.926 34.32C171.046 35.2533 172.894 35.72 175.47 35.72C177.486 35.72 179.222 35.496 180.678 35.048C182.134 34.6 183.272 34.208 184.094 33.872V41.376C182.974 41.9733 181.35 42.496 179.222 42.944C177.131 43.3547 174.947 43.56 172.67 43.56ZM167.91 27.264L175.638 26.144L175.134 23.736C174.872 23.5867 174.48 23.4747 173.958 23.4C173.472 23.3253 173.043 23.288 172.67 23.288C171.624 23.288 170.747 23.512 170.038 23.96C169.366 24.408 168.843 24.9493 168.47 25.584C168.134 26.1813 167.947 26.7413 167.91 27.264Z" fill="#036D19"/>
<path d="M76.61 56.608V26.088L75.49 19.928L77.226 16.512H85.57V18.92L86.13 19.2C86.13 19.2 86.466 18.92 87.138 18.36C87.81 17.8 88.7247 17.2587 89.882 16.736C91.0767 16.176 92.458 15.896 94.026 15.896C97.3487 15.896 99.9433 16.96 101.81 19.088C103.714 21.216 104.666 24.576 104.666 29.168C104.666 32.6027 104.181 35.384 103.21 37.512C102.277 39.6027 101.007 41.1147 99.402 42.048C97.7967 42.9813 96.0047 43.448 94.026 43.448C91.338 43.448 89.434 43.2427 88.314 42.832C87.2313 42.384 86.69 42.16 86.69 42.16V56.608H76.61ZM89.266 35.776C90.6847 35.776 91.8233 35.272 92.682 34.264C93.578 33.256 94.026 31.7253 94.026 29.672C94.026 27.656 93.6713 26.1813 92.962 25.248C92.2527 24.3147 91.2073 23.848 89.826 23.848L86.69 25.024V35.048C86.69 35.048 86.8767 35.1787 87.25 35.44C87.6607 35.664 88.3327 35.776 89.266 35.776Z" fill="#14CC60"/>
</svg>
