<svg width="849" height="523" viewBox="0 0 849 523" fill="none" xmlns="http://www.w3.org/2000/svg">
<g filter="url(#filter0_f)">
<circle cx="209.5" cy="346.5" r="116.5" fill="#90FAB2" fill-opacity="0.28"/>
</g>
<g filter="url(#filter1_f)">
<ellipse cx="661.5" cy="210" rx="207.5" ry="201" fill="#036D19" fill-opacity="0.18"/>
</g>
<path d="M692.093 83.5514H474.835V79.0813H376.322V83.5514H158.169C154.271 83.5514 150.533 85.0973 147.777 87.8489C145.02 90.6005 143.472 94.3325 143.472 98.2239V395.218C143.472 399.109 145.02 402.841 147.777 405.593C150.533 408.344 154.271 409.89 158.169 409.89H692.093C695.991 409.89 699.729 408.344 702.485 405.593C705.242 402.841 706.79 399.109 706.79 395.218V98.2223C706.79 94.3312 705.241 90.5996 702.485 87.8483C699.729 85.097 695.991 83.5514 692.093 83.5514Z" fill="#3F3D56"/>
<path d="M687.086 109.479H163.176V404.525H687.086V109.479Z" fill="#E6E6E6"/>
<path d="M665.046 125.082H185.395V380.112H665.046V125.082Z" fill="white"/>
<path d="M424.683 101.434C427.651 101.434 430.057 99.0317 430.057 96.0689C430.057 93.1061 427.651 90.7043 424.683 90.7043C421.715 90.7043 419.309 93.1061 419.309 96.0689C419.309 99.0317 421.715 101.434 424.683 101.434Z" fill="#14CC60"/>
<path d="M721.499 399.16H670.369V395.482C670.369 395.288 670.292 395.103 670.155 394.966C670.018 394.829 669.832 394.752 669.638 394.752H652.108C651.914 394.752 651.728 394.829 651.591 394.966C651.454 395.103 651.377 395.288 651.377 395.482V399.16H640.421V395.482C640.421 395.288 640.344 395.103 640.207 394.966C640.07 394.829 639.884 394.752 639.69 394.752H622.16C621.966 394.752 621.78 394.829 621.643 394.966C621.506 395.103 621.429 395.288 621.429 395.482V399.16H610.473V395.482C610.473 395.288 610.396 395.103 610.259 394.966C610.122 394.829 609.936 394.752 609.743 394.752H592.212C592.018 394.752 591.832 394.829 591.695 394.966C591.558 395.103 591.481 395.288 591.481 395.482V399.16H580.525V395.482C580.525 395.288 580.448 395.103 580.311 394.966C580.174 394.829 579.989 394.752 579.795 394.752H562.265C562.071 394.752 561.885 394.829 561.748 394.966C561.611 395.103 561.534 395.288 561.534 395.482V399.16H550.578V395.482C550.578 395.288 550.501 395.103 550.364 394.966C550.227 394.829 550.041 394.752 549.847 394.752H532.317C532.124 394.752 531.938 394.829 531.801 394.966C531.664 395.103 531.587 395.288 531.587 395.482V399.16H520.63V395.482C520.63 395.288 520.553 395.103 520.416 394.966C520.279 394.829 520.093 394.752 519.899 394.752H502.373C502.179 394.752 501.993 394.829 501.856 394.966C501.719 395.103 501.642 395.288 501.642 395.482V399.16H490.682V395.482C490.682 395.288 490.605 395.103 490.468 394.966C490.331 394.829 490.145 394.752 489.951 394.752H352.631C352.437 394.752 352.251 394.829 352.114 394.966C351.977 395.103 351.9 395.288 351.9 395.482V399.16H340.944V395.482C340.944 395.288 340.867 395.103 340.73 394.966C340.593 394.829 340.407 394.752 340.213 394.752H322.683C322.489 394.752 322.303 394.829 322.166 394.966C322.029 395.103 321.952 395.288 321.952 395.482V399.16H310.996V395.482C310.996 395.288 310.919 395.103 310.782 394.966C310.645 394.829 310.459 394.752 310.265 394.752H292.736C292.542 394.752 292.356 394.829 292.219 394.966C292.082 395.103 292.005 395.288 292.005 395.482V399.16H281.048V395.482C281.048 395.288 280.971 395.103 280.834 394.966C280.697 394.829 280.511 394.752 280.318 394.752H262.788C262.594 394.752 262.408 394.829 262.271 394.966C262.134 395.103 262.057 395.288 262.057 395.482V399.16H251.103V395.482C251.103 395.288 251.026 395.103 250.889 394.966C250.752 394.829 250.566 394.752 250.372 394.752H232.84C232.646 394.752 232.46 394.829 232.323 394.966C232.186 395.103 232.109 395.288 232.109 395.482V399.16H221.153V395.482C221.153 395.288 221.076 395.103 220.939 394.966C220.802 394.829 220.617 394.752 220.423 394.752H202.892C202.699 394.752 202.513 394.829 202.376 394.966C202.239 395.103 202.162 395.288 202.162 395.482V399.16H191.206V395.482C191.206 395.288 191.129 395.103 190.992 394.966C190.855 394.829 190.669 394.752 190.475 394.752H172.941C172.747 394.752 172.562 394.829 172.425 394.966C172.287 395.103 172.21 395.288 172.21 395.482V399.16H138.614C133.965 399.16 129.506 401.004 126.218 404.286C122.931 407.568 121.084 412.02 121.084 416.661V424.574C121.084 429.216 122.931 433.667 126.218 436.95C129.506 440.232 133.965 442.076 138.614 442.076H721.499C726.148 442.076 730.607 440.232 733.894 436.95C737.182 433.668 739.029 429.217 739.029 424.575V416.662C739.029 412.02 737.182 407.569 733.895 404.287C730.607 401.005 726.148 399.161 721.499 399.161V399.16Z" fill="#3F3D56"/>
<path d="M531.273 142.969H319.168V365.558H531.273V142.969Z" fill="#E6E6E6"/>
<path d="M86.1995 403.162C73.3178 415.147 54.3837 415.767 54.3837 415.767C54.3837 415.767 56.3361 396.955 69.2177 384.97C82.0994 372.985 101.034 372.366 101.034 372.366C101.034 372.366 99.082 391.178 86.1995 403.162Z" fill="#14CC60"/>
<path d="M50.9028 383.089C62.9077 395.949 63.5281 414.851 63.5281 414.851C63.5281 414.851 44.6849 412.902 32.6801 400.042C20.6753 387.182 20.0548 368.279 20.0548 368.279C20.0548 368.279 38.898 370.228 50.9028 383.089Z" fill="#14CC60"/>
<path d="M77.978 441.332H30.5975C29.6884 441.332 28.7975 441.077 28.0268 440.596C27.2561 440.114 26.6366 439.426 26.2393 438.61L15.9238 417.441C15.5636 416.703 15.3973 415.886 15.4406 415.067C15.4838 414.247 15.7353 413.453 16.1712 412.757C16.6071 412.061 17.2132 411.488 17.9323 411.091C18.6515 410.693 19.4601 410.485 20.282 410.486H88.2944C89.1163 410.485 89.9249 410.693 90.644 411.091C91.3632 411.488 91.9692 412.061 92.4052 412.757C92.8411 413.453 93.0925 414.247 93.1358 415.067C93.1791 415.886 93.0128 416.703 92.6526 417.441L82.3371 438.611C81.9397 439.427 81.3203 440.115 80.5495 440.597C79.7788 441.078 78.888 441.333 77.9789 441.333L77.978 441.332Z" fill="#E5E5E5"/>
<path d="M450.813 205.98C466.381 205.98 479.002 193.381 479.002 177.838C479.002 162.296 466.381 149.696 450.813 149.696C435.244 149.696 422.624 162.296 422.624 177.838C422.624 193.381 435.244 205.98 450.813 205.98Z" fill="#A0616A"/>
<path d="M385.954 366.017L404.158 251.607C405.126 245.524 407.38 239.717 410.771 234.571C414.162 229.426 418.612 225.06 423.824 221.765C429.036 218.47 434.892 216.32 441.001 215.46C447.11 214.6 453.332 215.048 459.254 216.775C469.608 219.765 478.474 226.501 484.12 235.667C489.765 244.834 491.785 255.772 489.785 266.345L470.746 368.519L385.954 366.017Z" fill="#14CC60"/>
<path d="M458.596 386.487C460.003 385.559 461.19 384.334 462.073 382.898C462.955 381.463 463.511 379.851 463.702 378.178C463.893 376.504 463.715 374.809 463.179 373.212C462.643 371.615 461.762 370.154 460.6 368.934L479.418 332.553L458.226 334.811L443.605 369.013C441.688 371.1 440.603 373.816 440.555 376.648C440.507 379.479 441.499 382.23 443.344 384.381C445.189 386.532 447.76 387.934 450.569 388.322C453.379 388.71 456.234 388.058 458.595 386.488L458.596 386.487Z" fill="#A0616A"/>
<path d="M462.626 362.517C461.585 362.37 460.613 361.91 459.841 361.198L452.641 354.556C451.863 353.835 451.326 352.893 451.102 351.858C450.878 350.822 450.978 349.743 451.388 348.766L465.778 314.715L463.736 247.434C464.333 243.069 466.642 239.119 470.155 236.454C473.668 233.788 478.098 232.625 482.47 233.221C486.843 233.816 490.799 236.121 493.469 239.629C496.139 243.136 497.303 247.559 496.707 251.924L500.198 294.218C501.259 307.054 497.613 319.838 489.94 330.192L467.499 360.479C467.067 361.061 466.518 361.546 465.886 361.902C465.254 362.258 464.555 362.477 463.832 362.545C463.43 362.583 463.025 362.574 462.626 362.517Z" fill="#14CC60"/>
<path d="M288.479 162.505C288.787 164.162 289.454 165.731 290.434 167.102C291.414 168.472 292.683 169.612 294.153 170.441C295.622 171.269 297.255 171.765 298.937 171.895C300.619 172.025 302.31 171.786 303.889 171.193L330.11 202.677L336.289 182.314L310.442 155.538C309.263 152.963 307.181 150.909 304.589 149.762C301.996 148.615 299.073 148.456 296.371 149.313C293.669 150.17 291.374 151.985 289.92 154.416C288.467 156.846 287.954 159.724 288.48 162.505H288.479Z" fill="#A0616A"/>
<path d="M309.019 175.556C309.561 174.656 310.364 173.942 311.322 173.51L320.257 169.481C321.225 169.047 322.304 168.92 323.346 169.118C324.389 169.316 325.346 169.829 326.087 170.587L351.886 197.092L414.742 221.447C416.622 222.561 418.264 224.033 419.574 225.78C420.884 227.527 421.836 229.515 422.376 231.629C422.916 233.744 423.033 235.944 422.721 238.104C422.409 240.264 421.674 242.341 420.557 244.217C419.441 246.093 417.965 247.731 416.214 249.038C414.463 250.344 412.472 251.293 410.353 251.831C408.235 252.368 406.031 252.484 403.868 252.171C401.704 251.858 399.624 251.123 397.746 250.007L357.373 236.725C345.119 232.696 334.748 224.36 328.189 213.268L309.003 180.83C308.634 180.206 308.401 179.512 308.319 178.793C308.237 178.073 308.307 177.344 308.526 176.654C308.647 176.27 308.814 175.901 309.022 175.556L309.019 175.556Z" fill="#14CC60"/>
<path opacity="0.1" d="M473.678 275.421L472.53 312.087L451.387 348.768L469.041 307.894L473.678 275.421Z" fill="black"/>
<path d="M431.722 163.733C434.63 167.168 439.55 168.137 444.09 168.535C453.308 169.342 466.712 168.034 475.721 165.956C476.364 172.178 474.611 178.885 478.281 184.003C480.002 177.807 481.003 171.434 481.263 165.01C481.374 162.259 481.331 159.404 480.21 156.875C479.088 154.346 476.642 152.199 473.825 152.176C475.918 150.591 478.369 149.545 480.963 149.13L472.044 144.656L474.335 142.308L458.188 141.322L462.864 138.356C455.826 137.391 448.705 137.168 441.62 137.689C438.329 137.931 434.889 138.393 432.223 140.297C429.558 142.2 428.017 145.982 429.672 148.777C427.6 149.116 425.65 149.978 424.005 151.281C422.36 152.584 421.075 154.285 420.273 156.222C419.085 159.23 419.193 162.571 419.56 165.777C420.168 170.903 421.362 175.944 423.117 180.799" fill="#2F2E41"/>
<path d="M552.23 93.2326L295.367 152.435C294.106 152.724 292.781 152.502 291.683 151.817C290.586 151.133 289.805 150.041 289.512 148.783L274.802 85.1724C274.512 83.9131 274.735 82.5905 275.421 81.4947C276.107 80.399 277.2 79.6195 278.461 79.3273L535.324 20.1249C536.585 19.8357 537.91 20.0579 539.008 20.7426C540.105 21.4273 540.886 22.5186 541.179 23.7772L555.889 87.3877C556.178 88.647 555.956 89.9696 555.27 91.0653C554.584 92.161 553.491 92.9404 552.23 93.2326Z" fill="white"/>
<path d="M552.23 93.2326L295.367 152.435C294.106 152.724 292.781 152.502 291.683 151.817C290.586 151.133 289.805 150.041 289.512 148.783L274.802 85.1724C274.512 83.9131 274.735 82.5905 275.421 81.4947C276.107 80.399 277.2 79.6195 278.461 79.3273L535.324 20.1249C536.585 19.8357 537.91 20.0579 539.008 20.7426C540.105 21.4273 540.886 22.5186 541.179 23.7772L555.889 87.3877C556.178 88.647 555.956 89.9696 555.27 91.0653C554.584 92.161 553.491 92.9404 552.23 93.2326ZM278.9 81.2273C278.143 81.4025 277.487 81.8702 277.076 82.5278C276.664 83.1853 276.531 83.979 276.705 84.7347L291.415 148.345C291.59 149.101 292.059 149.756 292.717 150.166C293.376 150.577 294.171 150.711 294.928 150.537L551.791 91.3343C552.548 91.1592 553.204 90.6915 553.616 90.0339C554.027 89.3763 554.161 88.5826 553.987 87.8269L539.276 24.2157C539.101 23.4603 538.632 22.8052 537.974 22.3943C537.315 21.9834 536.52 21.8502 535.763 22.024L278.9 81.2273Z" fill="#E6E6E6"/>
<path d="M368.029 81.0306C367.605 81.1275 367.204 81.3069 366.849 81.5586C366.494 81.8102 366.192 82.1292 365.96 82.4974C365.729 82.8655 365.573 83.2755 365.5 83.7041C365.427 84.1326 365.44 84.5712 365.537 84.9949C365.634 85.4185 365.814 85.8189 366.066 86.1731C366.319 86.5274 366.638 86.8285 367.007 87.0594C367.376 87.2903 367.787 87.4464 368.216 87.5188C368.645 87.5911 369.085 87.5784 369.509 87.4812L369.52 87.4786L521.762 52.3895C522.617 52.1909 523.359 51.6616 523.824 50.9178C524.288 50.174 524.438 49.2765 524.241 48.4223C524.043 47.5681 523.514 46.8271 522.77 46.362C522.026 45.8968 521.127 45.7456 520.271 45.9414L368.029 81.0306Z" fill="#E6E6E6"/>
<path d="M372.503 100.376C372.078 100.472 371.677 100.652 371.322 100.903C370.967 101.155 370.666 101.474 370.434 101.842C370.203 102.21 370.046 102.62 369.974 103.049C369.901 103.478 369.914 103.916 370.011 104.34C370.108 104.763 370.288 105.164 370.54 105.518C370.792 105.872 371.112 106.173 371.481 106.404C371.85 106.635 372.26 106.791 372.69 106.864C373.119 106.936 373.558 106.923 373.983 106.826L373.994 106.824L439.504 91.7246C440.36 91.5284 441.104 91.0007 441.571 90.2574C442.038 89.514 442.19 88.616 441.993 87.7608C441.797 86.9056 441.269 86.1632 440.525 85.6969C439.78 85.2305 438.881 85.0784 438.024 85.274L438.013 85.2766L372.503 100.376Z" fill="#E6E6E6"/>
<path d="M326.409 123.906C337.392 123.906 346.296 115.017 346.296 104.053C346.296 93.0882 337.392 84.1997 326.409 84.1997C315.427 84.1997 306.523 93.0882 306.523 104.053C306.523 115.017 315.427 123.906 326.409 123.906Z" fill="#14CC60"/>
<path d="M325.85 115.505C325.199 115.656 324.517 115.592 323.906 115.322L323.868 115.305L315.866 111.679C315.495 111.511 315.16 111.271 314.881 110.974C314.602 110.677 314.385 110.327 314.242 109.946C314.098 109.565 314.032 109.159 314.045 108.752C314.059 108.345 314.153 107.945 314.322 107.574C314.491 107.204 314.731 106.87 315.029 106.592C315.328 106.314 315.678 106.098 316.06 105.955C316.442 105.812 316.848 105.746 317.256 105.761C317.664 105.775 318.064 105.869 318.435 106.039L323.62 108.395L330.894 92.4387C331.235 91.6917 331.859 91.1103 332.629 90.8224C333.399 90.5346 334.252 90.5638 335 90.9037L334.957 91.0079L335.003 90.9032C335.75 91.2441 336.332 91.8672 336.62 92.6359C336.909 93.4045 336.879 94.2559 336.54 95.0031L327.985 113.774C327.786 114.206 327.491 114.587 327.121 114.887C326.752 115.187 326.318 115.398 325.853 115.504L325.85 115.505Z" fill="white"/>
<defs>
<filter id="filter0_f" x="33" y="170" width="353" height="353" filterUnits="userSpaceOnUse" color-interpolation-filters="sRGB">
<feFlood flood-opacity="0" result="BackgroundImageFix"/>
<feBlend mode="normal" in="SourceGraphic" in2="BackgroundImageFix" result="shape"/>
<feGaussianBlur stdDeviation="30" result="effect1_foregroundBlur"/>
</filter>
<filter id="filter1_f" x="445" y="0" width="433" height="420" filterUnits="userSpaceOnUse" color-interpolation-filters="sRGB">
<feFlood flood-opacity="0" result="BackgroundImageFix"/>
<feBlend mode="normal" in="SourceGraphic" in2="BackgroundImageFix" result="shape"/>
<feGaussianBlur stdDeviation="4.5" result="effect1_foregroundBlur"/>
</filter>
</defs>
</svg>
